<svg xmlns="http://www.w3.org/2000/svg" width="22.251" height="21.08" viewBox="0 0 22.251 21.08"><defs><style>.a{fill:#c9c9c9;}</style></defs><path class="a" d="M24.08,16.211H4.171A1.175,1.175,0,0,0,3,17.382v7.027A1.175,1.175,0,0,0,4.171,25.58H24.08a1.175,1.175,0,0,0,1.171-1.171V17.382A1.175,1.175,0,0,0,24.08,16.211Zm0-11.711H4.171A1.175,1.175,0,0,0,3,5.671V12.7a1.175,1.175,0,0,0,1.171,1.171H24.08A1.175,1.175,0,0,0,25.251,12.7V5.671A1.175,1.175,0,0,0,24.08,4.5Z" transform="translate(-3 -4.5)"/></svg>