<svg xmlns="http://www.w3.org/2000/svg" width="30.844" height="30.844" viewBox="0 0 30.844 30.844"><defs><style>.a{fill:#acacac;}</style></defs><path class="a" d="M15.422.563A15.422,15.422,0,1,0,30.844,15.984,15.419,15.419,0,0,0,15.422.563Zm0,5.97A5.472,5.472,0,1,1,9.95,12,5.472,5.472,0,0,1,15.422,6.532Zm0,21.392a11.916,11.916,0,0,1-9.11-4.241,6.933,6.933,0,0,1,6.125-3.719,1.522,1.522,0,0,1,.442.068,8.233,8.233,0,0,0,2.543.429,8.2,8.2,0,0,0,2.543-.429,1.522,1.522,0,0,1,.442-.068,6.933,6.933,0,0,1,6.125,3.719A11.916,11.916,0,0,1,15.422,27.924Z" transform="translate(0 -0.563)"/></svg>