<svg xmlns="http://www.w3.org/2000/svg" width="28.45" height="19.205" viewBox="0 0 28.45 19.205"><defs><style>.a{fill:#acacac;}</style></defs><path class="a" d="M.072,21.572V5.769q0-.027.082-.521l9.3,7.956L.182,22.12a2.325,2.325,0,0,1-.11-.549ZM1.307,4.15a1.182,1.182,0,0,1,.466-.082H26.821a1.554,1.554,0,0,1,.494.082l-9.328,7.984-1.235.988-2.442,2-2.442-2-1.235-.988Zm.027,19.04,9.355-8.971,3.621,2.936,3.621-2.936,9.355,8.971a1.317,1.317,0,0,1-.466.082H1.773a1.243,1.243,0,0,1-.439-.082ZM19.167,13.2,28.44,5.248a1.638,1.638,0,0,1,.082.521v15.8a2.1,2.1,0,0,1-.082.549Z" transform="translate(-0.072 -4.068)"/></svg>