<svg xmlns="http://www.w3.org/2000/svg" width="19.293" height="19.293" viewBox="0 0 19.293 19.293"><defs><style>.a{fill:#a1a1a1;}</style></defs><path class="a" d="M9.806,15.795A6.643,6.643,0,0,1,14.14,9.574a5.505,5.505,0,0,0,.489-2.219c0-3,0-5.426-3.617-5.426S7.394,4.357,7.394,7.354a5.386,5.386,0,0,0,2.412,4.481v.994c-4.09.334-7.235,2.344-7.235,4.774h7.486a6.616,6.616,0,0,1-.251-1.809Zm6.632-5.426a5.426,5.426,0,1,0,5.426,5.426A5.426,5.426,0,0,0,16.438,10.369ZM19.452,16.4H13.423V15.192h6.029Z" transform="translate(-2.571 -1.928)"/></svg>