<svg xmlns="http://www.w3.org/2000/svg" viewBox="0 0 176.28 62.46"><defs><style>.cls-1{fill:#fff;}.cls-2{fill:#f37021;}.cls-3{fill:#f7941d;}.cls-4{fill:#fdb913;}</style></defs><title>Asset 1</title><g id="Layer_2" data-name="Layer 2"><g id="Layer_1-2" data-name="Layer 1"><path class="cls-1" d="M29.56,2.51a23.46,23.46,0,0,1,8.18,1.28A12.05,12.05,0,0,1,43.06,7.4,9.85,9.85,0,0,1,45.17,13a16.87,16.87,0,0,1-1.42,7.41H32a3.78,3.78,0,0,1-2.08-.53q-.83-.53-.5-1.91c0-.18.09-.33.13-.46s.09-.29.13-.46a1,1,0,0,0,.2-.59,6.22,6.22,0,0,0,.26-2.41q-.13-1-1.45-1a3.57,3.57,0,0,0-2.64,1,10,10,0,0,0-1.91,3.31A2.37,2.37,0,0,0,24.68,20a19.9,19.9,0,0,0,2.84,2.55q1.78,1.35,3.79,3a15.89,15.89,0,0,1,3.43,3.83,11.84,11.84,0,0,1,1.75,5.12,14.17,14.17,0,0,1-1.25,6.81,22,22,0,0,1-2.9,5.32,13.11,13.11,0,0,1-4,3.47A17.25,17.25,0,0,1,22.9,52a41.26,41.26,0,0,1-7.26.56,23.91,23.91,0,0,1-8.18-1.25,11.81,11.81,0,0,1-5.31-3.6A9.93,9.93,0,0,1,0,42a17.28,17.28,0,0,1,1.42-7.49H13.13a3.37,3.37,0,0,1,2.31.76q.86.76,0,2.67a1.64,1.64,0,0,0-.17.46,2,2,0,0,0,0,.33A5.44,5.44,0,0,0,15.08,41q.16.93,1.42.92a3.57,3.57,0,0,0,2.64-1A10,10,0,0,0,21,37.62a2.34,2.34,0,0,0-.53-2.54,18.8,18.8,0,0,0-2.84-2.57q-1.78-1.35-3.79-3a16.67,16.67,0,0,1-3.43-3.83,11.57,11.57,0,0,1-1.75-5.11A14.19,14.19,0,0,1,10,13.73a21.89,21.89,0,0,1,2.9-5.31,13.11,13.11,0,0,1,4-3.46A17.29,17.29,0,0,1,22.3,3.07,41.36,41.36,0,0,1,29.56,2.51Z"/><path class="cls-1" d="M70.48.07,49.36,51.81H35.17L55,3.3A5.26,5.26,0,0,1,57,.92,5.11,5.11,0,0,1,59.79.07Z"/><path class="cls-1" d="M72.4,8.84H86.52L69,51.81H54.91ZM90.08,0,87.84,5.54H73.72l.86-2.24a5.46,5.46,0,0,1,2-2.41A5,5,0,0,1,79.39,0Z"/><path class="cls-1" d="M107.64,32.54l7.46,19.27H104.27a4.62,4.62,0,0,1-2.94-.86,4.8,4.8,0,0,1-1.55-2L94.9,35,88,51.81H73.91L93.71,3.3A4.82,4.82,0,0,1,95.66.92,5.27,5.27,0,0,1,98.53.07h10.69L99,24.95l13.93-13.33a9.9,9.9,0,0,1,2.94-1.95,9.08,9.08,0,0,1,3.79-.82h12.87Z"/><path class="cls-2" d="M140.29,48.33c1.38.64,3.26.69,5.8.14,2.08-.45,15-2.7,20.93-3.79,3.09-.57,3.71-1,5.3-4.78l2.41-5.78c1.54-3.69,2.2-4.6.7-7.06,1.63,2.68.56,4.32-1.94,4.71-1.71.27-23.08,3.92-30.69,5.21a4.9,4.9,0,0,0-3.7,3h0C137.43,44.65,138.54,47.5,140.29,48.33Z"/><path class="cls-3" d="M175.44,27.06C162.18,7.59,162.18,7.69,160.31,4.75c-1.4-2.19-2.71-3.6-4.14-4.13-1.91-.68-4.76.68-6.83,5.17l-1,2.5,17,24.9,8.24-1.43C176,31.38,177.06,29.73,175.44,27.06Z"/><path class="cls-4" d="M120.89,53.3c1.3,1.57,7.78,8.56,9.59,9.16-1.75-.83-2.84-3.72-1.17-8.42l20-48.31c2.13-4.44,4.92-5.78,6.8-5.1-1.7-.87-11.23-.54-13.26-.36-2.88.25-4.14,1.62-5.27,4.34L120.26,46.5C119.13,49.22,119,51.08,120.89,53.3Z"/></g></g></svg>