<svg xmlns="http://www.w3.org/2000/svg" width="20.546" height="20.546" viewBox="0 0 20.546 20.546"><defs><style>.a{fill:#c9c9c9;}</style></defs><path class="a" d="M18.345,2.25H2.2A2.2,2.2,0,0,0,0,4.451V20.595a2.2,2.2,0,0,0,2.2,2.2H18.345a2.2,2.2,0,0,0,2.2-2.2V4.451A2.2,2.2,0,0,0,18.345,2.25ZM7.338,17.659a.734.734,0,0,1-.734.734H5.136a.734.734,0,0,1-.734-.734v-5.87a.734.734,0,0,1,.734-.734H6.6a.734.734,0,0,1,.734.734Zm4.4,0a.734.734,0,0,1-.734.734H9.539a.734.734,0,0,1-.734-.734V7.386a.734.734,0,0,1,.734-.734h1.468a.734.734,0,0,1,.734.734Zm4.4,0a.734.734,0,0,1-.734.734H13.942a.734.734,0,0,1-.734-.734V14.724a.734.734,0,0,1,.734-.734h1.468a.734.734,0,0,1,.734.734Z" transform="translate(0 -2.25)"/></svg>