<svg xmlns="http://www.w3.org/2000/svg" width="47.484" height="42" viewBox="0 0 47.484 42"><defs><style>.b{fill:#ccc;}</style></defs><g transform="translate(-202 -81)"><circle class="a" cx="21" cy="21" r="21" transform="translate(202 81)"/><path class="b" d="M19.514,3H4.835A1.832,1.832,0,0,0,3.009,4.835L3,21.349l3.67-3.67H19.514a1.84,1.84,0,0,0,1.835-1.835V4.835A1.84,1.84,0,0,0,19.514,3ZM17.679,14.009H6.67V12.174H17.679Zm0-2.752H6.67V9.422H17.679Zm0-2.752H6.67V6.67H17.679Z" transform="translate(211.2 90)"/><path d="M2.064-2.874,9.484,10.15-3.354,6.39V7.72Z" transform="translate(240 109)"/></g></svg>