<svg xmlns="http://www.w3.org/2000/svg" width="46.484" height="42" viewBox="0 0 46.484 42"><defs><style>.b{fill:#ccc;}</style></defs><g transform="translate(-93 -81)"><circle class="a" cx="21" cy="21" r="21" transform="translate(93 81)"/><path class="b" d="M19.6,13.852V10.078A1.081,1.081,0,0,0,18.518,9H5.578A1.081,1.081,0,0,0,4.5,10.078V20.861a1.081,1.081,0,0,0,1.078,1.078H18.518A1.081,1.081,0,0,0,19.6,20.861V17.087L23.909,21.4V9.539Zm-3.235,2.7H13.126v3.235H10.97V16.548H7.735V14.391H10.97V11.157h2.157v3.235h3.235Z" transform="translate(101.2 86.561)"/><path d="M2.064-2.874,9.484,10.15-3.354,6.39V7.72Z" transform="translate(130 109)"/></g></svg>