<svg xmlns="http://www.w3.org/2000/svg" width="21.691" height="18.98" viewBox="0 0 21.691 18.98"><defs><style>.a{fill:#B2B2B2;}</style></defs><path class="a" d="M13.557,15.129a.678.678,0,0,1-.678.678H8.812a.678.678,0,0,1-.678-.678V13.1H0v6.1A2.085,2.085,0,0,0,2.034,21.23H19.658A2.085,2.085,0,0,0,21.691,19.2V13.1H13.557Zm6.1-8.812H16.269V4.284A2.085,2.085,0,0,0,14.235,2.25H7.456A2.085,2.085,0,0,0,5.423,4.284V6.317H2.034A2.085,2.085,0,0,0,0,8.351V11.74H21.691V8.351A2.085,2.085,0,0,0,19.658,6.317Zm-6.1,0H8.134V4.961h5.423Z" transform="translate(0 -2.25)"/></svg>