<svg xmlns="http://www.w3.org/2000/svg" width="30.865" height="24.006" viewBox="0 0 30.865 24.006"><defs><style>.a{fill:#acacac;}</style></defs><path class="a" d="M28.293,2.25H2.572A2.573,2.573,0,0,0,0,4.822V23.684a2.573,2.573,0,0,0,2.572,2.572H28.293a2.573,2.573,0,0,0,2.572-2.572V4.822A2.573,2.573,0,0,0,28.293,2.25ZM9.431,7.394A3.429,3.429,0,1,1,6,10.824,3.433,3.433,0,0,1,9.431,7.394Zm6,12.689a1.124,1.124,0,0,1-1.2,1.029H4.63a1.124,1.124,0,0,1-1.2-1.029V19.054a3.374,3.374,0,0,1,3.6-3.086H7.3a5.519,5.519,0,0,0,4.265,0h.268a3.374,3.374,0,0,1,3.6,3.086Zm12-2.829a.43.43,0,0,1-.429.429H19.29a.43.43,0,0,1-.429-.429V16.4a.43.43,0,0,1,.429-.429h7.716a.43.43,0,0,1,.429.429Zm0-3.429a.43.43,0,0,1-.429.429H19.29a.43.43,0,0,1-.429-.429v-.857a.43.43,0,0,1,.429-.429h7.716a.43.43,0,0,1,.429.429Zm0-3.429a.43.43,0,0,1-.429.429H19.29a.43.43,0,0,1-.429-.429V9.537a.43.43,0,0,1,.429-.429h7.716a.43.43,0,0,1,.429.429Z" transform="translate(0 -2.25)"/></svg>